# Blender 4.0.2
# www.blender.org
mtllib ship.mtl
o Ship
v -0.784889 0.020000 0.657609
v -0.784889 0.200000 0.657609
v -0.657609 0.020000 0.784888
v -0.657609 0.200000 0.784888
v -0.657609 0.020000 0.530330
v -0.657609 0.200000 0.530330
v -0.530330 0.020000 0.657609
v -0.530330 0.200000 0.657609
v -0.820179 0.199283 0.947458
v -0.947458 0.199283 0.820178
v -0.820178 0.199283 0.692899
v -0.692899 0.199283 0.820178
v -0.671744 0.189069 0.671744
v -0.971465 0.189069 0.971465
v -0.671744 1.485596 0.671744
v -0.971465 1.485596 0.971465
v -0.671744 0.189069 0.971465
v -0.971465 0.189069 0.671744
v -0.671744 1.485596 0.971465
v -0.971465 1.485596 0.671744
v 0.000000 0.000000 -1.000000
v -0.707107 0.000000 -0.707107
v -1.000000 0.000000 0.000000
v -0.707107 0.000000 0.707107
v 0.000000 0.000000 1.000000
v 0.707107 0.000000 0.707107
v 1.000000 0.000000 0.000000
v 0.707107 0.000000 -0.707107
v 0.000000 1.455558 -0.789300
v -0.558119 1.455558 -0.558119
v -0.789300 1.455558 0.000000
v -0.558119 1.455558 0.558119
v 0.000000 1.455558 0.789300
v 0.558119 1.455558 0.558119
v 0.789300 1.455558 0.000000
v 0.558119 1.455558 -0.558119
v 0.000000 1.871011 -0.463405
v -0.401320 1.871011 -0.231702
v -0.401320 1.871011 0.231702
v 0.000000 1.871011 0.463405
v 0.401320 1.871011 0.231702
v 0.401320 1.871011 -0.231702
v -0.074696 1.815912 -0.280215
v 0.280215 1.815912 -0.074696
v 0.074696 1.815912 0.280215
v -0.280215 1.815912 0.074696
v 0.000000 2.065912 0.000000
v 0.784889 0.020000 0.657609
v 0.784889 0.200000 0.657609
v 0.657609 0.020000 0.784888
v 0.657609 0.200000 0.784888
v 0.657609 0.020000 0.530330
v 0.657609 0.200000 0.530330
v 0.530330 0.020000 0.657609
v 0.530330 0.200000 0.657609
v 0.820179 0.199283 0.947458
v 0.947458 0.199283 0.820178
v 0.820178 0.199283 0.692899
v 0.692899 0.199283 0.820178
v 0.671744 0.189069 0.671744
v 0.971465 0.189069 0.971465
v 0.671744 1.485596 0.671744
v 0.971465 1.485596 0.971465
v 0.671744 0.189069 0.971465
v 0.971465 0.189069 0.671744
v 0.671744 1.485596 0.971465
v 0.971465 1.485596 0.671744
v 0.784889 0.020000 -0.657609
v 0.784889 0.200000 -0.657609
v 0.657609 0.020000 -0.784888
v 0.657609 0.200000 -0.784888
v 0.657609 0.020000 -0.530330
v 0.657609 0.200000 -0.530330
v 0.530330 0.020000 -0.657609
v 0.530330 0.200000 -0.657609
v 0.820179 0.199283 -0.947458
v 0.947458 0.199283 -0.820178
v 0.820178 0.199283 -0.692899
v 0.692899 0.199283 -0.820179
v 0.671744 0.189069 -0.671744
v 0.971465 0.189069 -0.971465
v 0.671744 1.485596 -0.671744
v 0.971465 1.485596 -0.971465
v 0.671744 0.189069 -0.971465
v 0.971465 0.189069 -0.671744
v 0.671744 1.485596 -0.971465
v 0.971465 1.485596 -0.671744
v -0.784889 0.020000 -0.657609
v -0.784889 0.200000 -0.657609
v -0.657609 0.020000 -0.784888
v -0.657609 0.200000 -0.784888
v -0.657609 0.020000 -0.530330
v -0.657609 0.200000 -0.530330
v -0.530330 0.020000 -0.657609
v -0.530330 0.200000 -0.657609
v -0.820179 0.199283 -0.947458
v -0.947458 0.199283 -0.820178
v -0.820178 0.199283 -0.692899
v -0.692899 0.199283 -0.820179
v -0.671744 0.189069 -0.671744
v -0.971465 0.189069 -0.971465
v -0.671744 1.485596 -0.671744
v -0.971465 1.485596 -0.971465
v -0.671744 0.189069 -0.971465
v -0.971465 0.189069 -0.671744
v -0.671744 1.485596 -0.971465
v -0.971465 1.485596 -0.671744
vn 0.0102 -0.9999 -0.0102
vn -0.7071 -0.0000 -0.7071
vn 0.7071 -0.0000 0.7071
vn -0.0000 1.0000 -0.0000
vn -0.0000 -1.0000 -0.0000
vn 0.4348 0.7886 -0.4348
vn 0.7071 -0.0000 -0.7071
vn 0.9157 0.1326 -0.3793
vn 0.3793 0.1326 0.9157
vn -0.9157 0.1326 0.3793
vn -0.3793 0.1326 -0.9157
vn 0.3793 0.1326 -0.9157
vn 0.9157 0.1326 0.3793
vn -0.3793 0.1326 0.9157
vn -0.9157 0.1326 -0.3793
vn -0.7748 0.5446 -0.3210
vn -0.7309 0.6825 -0.0000
vn -0.7748 0.5446 0.3210
vn -0.3774 0.6560 0.6536
vn -0.3099 0.5868 0.7481
vn 0.4136 0.5619 0.7164
vn 0.2887 0.6565 0.6969
vn 0.7748 0.5446 0.3210
vn 0.7309 0.6825 -0.0000
vn 0.7748 0.5446 -0.3210
vn 0.3774 0.6560 -0.6536
vn 0.3099 0.5868 -0.7481
vn -0.4136 0.5619 -0.7164
vn -0.2887 0.6565 -0.6969
vn 0.3875 0.6342 -0.6691
vn 0.6691 0.6342 0.3875
vn -0.3875 0.6342 0.6691
vn -0.6691 0.6342 -0.3875
vn -0.7071 -0.0000 0.7071
vn 0.4348 -0.7886 0.4348
vn -0.4348 0.7886 0.4348
vn -0.4348 -0.7886 -0.4348
vn -0.0102 0.9999 -0.0102
vn -0.0102 -0.9999 0.0102
vn 0.0102 0.9999 0.0102
vt 0.961096 0.550599
vt 0.908539 0.550599
vt 0.908539 0.536227
vt 0.961096 0.536227
vt 0.793964 0.537311
vt 0.743464 0.537311
vt 0.743464 0.491081
vt 0.793964 0.491081
vt 0.875030 0.593537
vt 0.829868 0.593537
vt 0.829868 0.548374
vt 0.875030 0.548374
vt 0.960254 0.564083
vt 0.960254 0.603770
vt 0.910320 0.603770
vt 0.910320 0.564083
vt 0.908539 0.602432
vt 0.961096 0.602432
vt 0.910320 0.482568
vt 0.960254 0.482568
vt 0.743665 0.596360
vt 0.743665 0.550129
vt 0.830048 0.535853
vt 0.830048 0.490690
vt 0.908539 0.484394
vt 0.961096 0.484394
vt 0.987552 0.676860
vt 0.987552 0.728557
vt 0.650731 0.728557
vt 0.650731 0.676860
vt 0.649440 0.252780
vt 0.649440 0.114498
vt 0.747220 0.016718
vt 0.885502 0.024530
vt 0.983282 0.114498
vt 0.983282 0.252780
vt 0.885502 0.350560
vt 0.747220 0.359350
vt 0.477471 0.433878
vt 0.615465 0.436618
vt 0.580675 0.700417
vt 0.474156 0.685822
vt 0.154270 0.016718
vt 0.299643 0.021977
vt 0.270213 0.290172
vt 0.164471 0.276003
vt 0.162224 0.434883
vt 0.300185 0.437945
vt 0.262911 0.701405
vt 0.156534 0.685808
vt 0.470631 0.016718
vt 0.616004 0.021977
vt 0.586573 0.290172
vt 0.480832 0.276003
vt 0.333079 0.031091
vt 0.375148 0.293500
vt 0.331974 0.435440
vt 0.368976 0.702839
vt 0.016718 0.031091
vt 0.058787 0.293500
vt 0.016718 0.434096
vt 0.051199 0.701833
vt 0.112864 0.785305
vt 0.200849 0.785305
vt 0.081993 0.392658
vt 0.164295 0.369022
vt 0.248316 0.392658
vt 0.474156 0.685822
vt 0.431425 0.785727
vt 0.519406 0.784898
vt 0.398353 0.392658
vt 0.480655 0.369022
vt 0.564677 0.392658
vt 0.314522 0.952611
vt 0.242014 0.910748
vt 0.242014 0.827023
vt 0.314522 0.785160
vt 0.387031 0.827023
vt 0.387031 0.910748
vt 0.109764 0.911787
vt 0.063241 0.865264
vt 0.109764 0.818741
vt 0.016718 0.818741
vt 0.016718 0.911787
vt 0.792791 0.534790
vt 0.743117 0.534790
vt 0.743117 0.487202
vt 0.792791 0.487202
vt 0.876395 0.594781
vt 0.827348 0.594781
vt 0.827348 0.547506
vt 0.876395 0.547506
vt 0.962031 0.551967
vt 0.962031 0.602725
vt 0.911273 0.602725
vt 0.911273 0.551967
vt 0.960694 0.484927
vt 0.960819 0.537360
vt 0.909233 0.537439
vt 0.909107 0.485006
vt 0.911273 0.487135
vt 0.962031 0.487135
vt 0.743315 0.595572
vt 0.743315 0.547985
vt 0.827543 0.534398
vt 0.827543 0.487123
vt 0.960819 0.604331
vt 0.909233 0.604410
vt 0.909107 0.551977
vt 0.960694 0.551898
vt 0.792381 0.535798
vt 0.744107 0.535798
vt 0.744107 0.487525
vt 0.792381 0.487525
vt 0.874714 0.596374
vt 0.828635 0.596374
vt 0.828635 0.549151
vt 0.874714 0.549151
vt 0.961814 0.550984
vt 0.961814 0.602779
vt 0.910310 0.602779
vt 0.910310 0.550984
vt 0.960791 0.484356
vt 0.960791 0.536223
vt 0.910364 0.536223
vt 0.910364 0.484356
vt 0.910310 0.485565
vt 0.961814 0.485565
vt 0.744300 0.597455
vt 0.744300 0.549182
vt 0.828818 0.536058
vt 0.828818 0.488836
vt 0.960791 0.602470
vt 0.910364 0.602470
vt 0.910364 0.550603
vt 0.960791 0.550603
vt 0.876173 0.548155
vt 0.828735 0.548155
vt 0.828736 0.595676
vt 0.876173 0.595676
vt 0.874985 0.594553
vt 0.828930 0.594553
vt 0.828930 0.548498
vt 0.874985 0.548498
vt 0.911309 0.536249
vt 0.911309 0.485563
vt 0.961995 0.485563
vt 0.961995 0.536249
vt 0.909150 0.602646
vt 0.909279 0.550584
vt 0.962071 0.550662
vt 0.961943 0.602724
vt 0.961995 0.600989
vt 0.911309 0.600989
vt 0.828925 0.487458
vt 0.828925 0.534979
vt 0.829113 0.535729
vt 0.829113 0.489674
vt 0.909279 0.484087
vt 0.962071 0.484166
vt 0.961943 0.536227
vt 0.909150 0.536149
s 0
usemtl Ship
f 2/1/1 4/2/1 12/3/1 11/4/1
f 3/5/2 4/6/2 8/7/2 7/8/2
f 5/9/3 6/10/3 2/11/3 1/12/3
f 3/13/4 7/14/4 5/15/4 1/16/4
f 8/17/5 4/2/5 2/1/5 6/18/5
f 3/13/6 1/16/6 10/19/6 9/20/6
f 4/6/2 3/5/2 9/21/2 12/22/2
f 1/12/3 2/11/3 11/23/3 10/24/3
f 9/25/5 10/26/5 11/4/5 12/3/5
f 13/27/2 14/28/2 16/29/2 15/30/2
f 17/27/7 18/28/7 20/29/7 19/30/7
f 22/31/5 21/32/5 28/33/5 27/34/5 26/35/5 25/36/5 24/37/5 23/38/5
f 27/39/8 28/40/8 36/41/8 35/42/8
f 25/43/9 26/44/9 34/45/9 33/46/9
f 23/47/10 24/48/10 32/49/10 31/50/10
f 21/51/11 22/52/11 30/53/11 29/54/11
f 28/55/12 21/51/12 29/54/12 36/56/12
f 26/57/13 27/39/13 35/42/13 34/58/13
f 24/59/14 25/43/14 33/46/14 32/60/14
f 22/61/15 23/47/15 31/50/15 30/62/15
f 31/50/16 38/63/16 30/62/16
f 38/63/17 31/50/17 39/64/17
f 31/50/18 32/49/18 39/64/18
f 39/65/19 32/60/19 40/66/19
f 32/60/20 33/46/20 40/66/20
f 40/66/21 33/46/21 41/67/21
f 33/46/22 34/45/22 41/67/22
f 34/58/23 35/68/23 41/69/23
f 41/69/24 35/68/24 42/70/24
f 35/68/25 36/41/25 42/70/25
f 42/71/26 36/56/26 37/72/26
f 36/56/27 29/54/27 37/72/27
f 37/72/28 29/54/28 38/73/28
f 29/54/29 30/53/29 38/73/29
f 38/74/4 39/75/4 40/76/4 41/77/4 42/78/4 37/79/4
f 43/80/30 47/81/30 44/82/30
f 44/82/31 47/81/31 45/83/31
f 45/83/32 47/81/32 46/84/32
f 46/84/33 47/81/33 43/80/33
f 50/85/34 51/86/34 55/87/34 54/88/34
f 52/89/7 53/90/7 49/91/7 48/92/7
f 50/93/5 54/94/5 52/95/5 48/96/5
f 55/97/4 51/98/4 49/99/4 53/100/4
f 50/93/35 48/96/35 57/101/35 56/102/35
f 51/86/34 50/85/34 56/103/34 59/104/34
f 48/92/7 49/91/7 58/105/7 57/106/7
f 56/107/4 57/108/4 58/109/4 59/110/4
f 60/27/34 61/28/34 63/29/34 62/30/34
f 64/27/3 65/28/3 67/29/3 66/30/3
f 70/111/3 71/112/3 75/113/3 74/114/3
f 72/115/2 73/116/2 69/117/2 68/118/2
f 70/119/4 74/120/4 72/121/4 68/122/4
f 75/123/5 71/124/5 69/125/5 73/126/5
f 70/119/36 68/122/36 77/127/36 76/128/36
f 71/112/3 70/111/3 76/129/3 79/130/3
f 68/118/2 69/117/2 78/131/2 77/132/2
f 76/133/5 77/134/5 78/135/5 79/136/5
f 80/27/3 81/28/3 83/29/3 82/30/3
f 84/27/34 85/28/34 87/29/34 86/30/34
f 90/137/7 91/138/7 95/139/7 94/140/7
f 92/141/34 93/142/34 89/143/34 88/144/34
f 90/145/5 94/146/5 92/147/5 88/148/5
f 95/149/4 91/150/4 89/151/4 93/152/4
f 90/145/37 88/148/37 97/153/37 96/154/37
f 91/138/7 90/137/7 96/155/7 99/156/7
f 88/144/34 89/143/34 98/157/34 97/158/34
f 96/159/4 97/160/4 98/161/4 99/162/4
f 100/27/7 101/28/7 103/29/7 102/30/7
f 104/27/2 105/28/2 107/29/2 106/30/2
f 89/151/38 91/150/38 99/162/38 98/161/38
f 69/125/39 71/124/39 79/136/39 78/135/39
f 51/98/40 59/110/40 58/109/40 49/99/40
